<svg width="142" height="26" viewBox="0 0 142 26" fill="none" xmlns="http://www.w3.org/2000/svg">
<path d="M1 11.5V14.5M5 7V19M9 10V16M13 5.5V20.5M17 1V25M21 8.5V17.5M25 11.5V14.5" stroke="#3080ED" stroke-width="2" stroke-linecap="round" stroke-linejoin="round"/>
<path d="M30 11.5V14.5M34 7V19M38 10V16M42 5.5V20.5M46 1V25M50 8.5V17.5M54 11.5V14.5" stroke="#3080ED" stroke-width="2" stroke-linecap="round" stroke-linejoin="round"/>
<path d="M59 11.5V14.5M63 7V19M67 10V16M71 5.5V20.5M75 1V25M79 8.5V17.5M83 11.5V14.5" stroke="#3080ED" stroke-width="2" stroke-linecap="round" stroke-linejoin="round"/>
<path d="M88 11.5V14.5M92 7V19M96 10V16M100 5.5V20.5M104 1V25M108 8.5V17.5M112 11.5V14.5" stroke="#3080ED" stroke-width="2" stroke-linecap="round" stroke-linejoin="round"/>
<path d="M117 11.5V14.5M121 7V19M125 10V16M129 5.5V20.5M133 1V25M137 8.5V17.5M141 11.5V14.5" stroke="#3080ED" stroke-width="2" stroke-linecap="round" stroke-linejoin="round"/>
</svg>
